<svg version="1.1" id="Layer_1" xmlns="http://www.w3.org/2000/svg" xmlns:xlink="http://www.w3.org/1999/xlink" x="0px" y="0px"
	 width="100%" viewBox="0 0 259 194" enable-background="new 0 0 259 194" xml:space="preserve">
<path fill="#0E1838" opacity="1.000000" stroke="none" 
	d="
M1.355211,106.346527 
	C1.000000,72.198250 1.031633,38.396416 0.940017,4.594910 
	C0.932678,1.887271 1.140970,0.892413 4.398877,0.897440 
	C88.486778,1.027203 172.574982,1.031868 256.662842,0.885837 
	C260.098480,0.879870 260.048157,2.117162 260.043243,4.656568 
	C259.978302,38.125175 260.000000,71.593948 260.000000,105.531342 
	C258.537323,107.885262 256.480896,108.342491 254.254364,108.383919 
	C249.117630,108.479515 244.033234,108.422409 238.911194,107.476234 
	C229.724136,105.779175 220.435318,105.912399 211.213226,107.407433 
	C207.925491,107.940414 204.719162,108.415596 201.351608,108.048439 
	C196.656281,107.536522 195.266754,108.846451 194.451218,113.698830 
	C194.057465,116.041649 194.513168,119.525665 191.112457,119.369453 
	C187.115723,119.185867 188.641144,115.298958 188.485657,113.051598 
	C188.297150,110.326988 188.624023,107.676811 185.973633,105.344833 
	C185.250168,97.570099 185.402603,90.192177 185.007965,82.393600 
	C185.530701,76.845169 185.910767,71.744400 184.455170,66.353119 
	C183.912827,65.556328 183.706268,65.056297 183.524384,64.126228 
	C183.902527,57.719151 178.619614,55.532253 175.298798,51.544258 
	C169.762955,47.682411 163.912277,46.171707 157.569763,46.319794 
	C138.419052,46.766914 119.264854,46.413364 100.112358,46.491947 
	C94.108772,46.516582 89.179054,48.776348 84.702019,53.090912 
	C84.232521,54.800171 83.077850,55.676628 82.558914,57.314529 
	C81.183243,59.306007 78.403297,59.709660 78.521431,62.835083 
	C78.507477,64.231682 78.071564,65.167336 77.825180,66.549706 
	C77.049728,71.515152 78.419136,75.956810 78.585960,80.917107 
	C76.120102,85.718307 76.539375,90.511955 76.436478,95.686417 
	C75.618362,99.148323 76.025200,102.356110 74.517540,105.635292 
	C71.114182,107.911140 67.743416,108.468521 64.168625,108.468849 
	C45.867748,108.470566 27.566706,108.523331 9.266195,108.415619 
	C6.669092,108.400337 3.870569,108.820686 1.355211,106.346527 
z"/>
<path fill="#0F1D3F" opacity="1.000000" stroke="none" 
	d="
M1.000000,106.468658 
	C20.260691,105.999901 39.521454,105.971046 58.782024,106.019875 
	C63.604115,106.032097 68.403809,105.969627 73.578751,105.016373 
	C75.991974,107.043236 76.759689,109.764984 78.088486,112.646683 
	C78.645828,117.732964 78.421417,122.404831 78.373138,127.488708 
	C78.337540,128.170944 78.307602,128.438461 78.150436,129.077744 
	C77.542831,130.297546 76.956215,131.096619 76.750908,132.447540 
	C76.544952,133.993652 76.507904,135.195358 76.439438,136.771362 
	C76.191978,139.108994 74.937416,140.641800 74.938469,142.898499 
	C74.940361,146.931549 70.623581,147.604691 67.703751,149.777802 
	C66.693634,151.215958 64.960304,152.712250 66.024635,153.734695 
	C67.373474,155.030457 69.919472,155.229141 71.636002,154.483704 
	C75.140259,152.961899 78.002357,154.632675 81.079956,155.534576 
	C82.294197,155.890457 83.089333,156.597183 83.410873,158.219818 
	C83.568245,159.381927 83.421425,160.140762 82.947403,161.230499 
	C81.874741,162.380707 80.846703,162.646820 79.316483,162.653229 
	C76.357872,163.136353 75.588470,164.852829 74.360413,167.093140 
	C70.134438,174.802475 68.739967,183.193375 67.084053,191.571701 
	C66.789650,193.061234 65.628555,193.706909 64.285461,194.743958 
	C44.223919,195.000000 24.446877,194.902390 4.672697,195.096283 
	C1.384795,195.128525 0.919720,194.145676 0.931749,191.193130 
	C1.046169,163.108231 1.000000,135.022675 1.000000,106.468658 
z"/>
<path fill="#0F1D3F" opacity="1.000000" stroke="none" 
	d="
M186.579208,105.374283 
	C189.883865,105.419022 189.898987,107.625763 190.011063,109.874641 
	C190.137085,112.403152 189.513016,115.045860 191.123993,118.622513 
	C192.455643,114.693901 191.848740,111.733231 192.015854,108.876373 
	C192.173218,106.186539 193.425385,103.599709 196.098083,104.427353 
	C206.448730,107.632599 216.502655,103.236923 226.782333,103.777634 
	C237.562180,104.344658 248.178207,107.291115 259.531921,105.999969 
	C260.000000,134.582809 259.951813,163.165833 260.077393,191.748093 
	C260.089447,194.491272 259.562164,195.105453 256.769897,195.082260 
	C237.826782,194.924835 218.881729,195.000000 199.468658,195.000000 
	C195.664658,191.952347 196.780777,187.071533 194.552094,183.743073 
	C190.405670,177.550568 191.107925,169.054565 184.528839,163.773987 
	C183.707718,163.338654 183.248505,163.059692 182.514557,162.458267 
	C181.737427,161.145767 181.075760,160.190384 181.437469,158.583496 
	C184.279465,155.775497 187.636017,154.860718 191.049515,154.870270 
	C207.161652,154.915405 223.274368,154.972061 237.089005,155.014755 
	C230.402374,154.763794 221.412079,155.161819 212.422012,154.869202 
	C210.200470,154.796921 208.259460,154.654404 206.334686,153.559662 
	C201.576813,150.853622 197.017349,147.767517 191.378128,146.919861 
	C188.776810,146.528870 187.677917,144.145340 187.119720,141.847900 
	C186.787888,140.482056 186.849869,139.021072 185.884369,137.377182 
	C185.617783,136.401245 185.544586,135.815353 185.502792,134.764526 
	C185.662140,125.992867 185.146011,117.679810 185.697357,109.364090 
	C185.780396,108.111755 185.771118,106.914825 186.579208,105.374283 
z"/>
<path fill="#301555" opacity="1.000000" stroke="none" 
	d="
M85.337555,194.653687 
	C81.307091,195.000000 77.614182,195.000000 73.460632,195.000000 
	C69.949753,192.523697 70.359718,189.109665 70.918724,185.923538 
	C71.462456,182.824524 72.012062,179.865265 71.081566,176.737503 
	C70.412132,174.487274 71.622192,172.613312 73.186714,170.541595 
	C74.519371,168.271500 75.582901,166.325272 76.764648,163.947662 
	C77.242928,163.401215 77.476936,163.219513 78.132507,162.866394 
	C84.039879,162.941833 86.127594,165.455200 87.478905,174.026886 
	C86.765724,178.938522 87.848358,183.372818 87.424538,187.812088 
	C87.208351,190.076538 87.576286,192.497177 85.337555,194.653687 
z"/>
<path fill="#701540" opacity="1.000000" stroke="none" 
	d="
M121.315392,194.667847 
	C117.969406,195.000000 114.938812,195.000000 111.454109,195.000000 
	C107.573563,192.176804 105.144981,188.393890 101.656082,185.575790 
	C98.865799,183.321976 99.197052,179.728012 100.238007,176.830170 
	C101.302467,173.866928 103.981766,172.479202 107.399582,172.442795 
	C110.488518,172.409882 113.317001,173.174606 116.599754,174.255753 
	C121.651085,180.329056 123.997635,186.789566 121.315392,194.667847 
z"/>
<path fill="#1B1E44" opacity="1.000000" stroke="none" 
	d="
M184.638184,162.266769 
	C186.553680,162.349731 187.706146,163.306595 188.413895,164.648743 
	C193.329620,173.970551 199.242447,182.943726 198.999664,194.560272 
	C195.969406,195.000000 192.938812,195.000000 189.454102,195.000000 
	C185.497116,191.047104 187.107040,186.111832 186.639023,181.637772 
	C186.204086,177.480240 186.416214,173.284698 184.002670,169.094467 
	C183.510818,167.798508 183.174789,166.930893 183.381088,165.523773 
	C183.489380,164.151306 183.661682,163.269699 184.638184,162.266769 
z"/>
<path fill="#191D4A" opacity="1.000000" stroke="none" 
	d="
M78.246964,163.671021 
	C78.017059,164.016052 78.004333,164.508057 77.996460,164.754013 
	C76.728622,166.251633 75.491425,167.518799 75.023087,169.656052 
	C74.334854,178.024078 73.670403,186.061111 73.002975,194.549072 
	C70.299988,195.000000 67.599968,195.000000 64.449982,195.000000 
	C65.258507,188.548370 66.510727,182.095505 67.777336,175.645462 
	C68.979897,169.521637 73.039223,165.283035 77.677719,161.108978 
	C78.583069,161.700607 78.738510,162.471817 78.246964,163.671021 
z"/>
<path fill="#3D1541" opacity="1.000000" stroke="none" 
	d="
M185.369598,194.607147 
	C182.629440,195.000000 180.258896,195.000000 177.444168,195.000000 
	C174.498077,192.740936 175.881134,189.711456 175.439789,187.046188 
	C175.144241,185.261475 175.350967,183.418686 174.772614,181.205826 
	C174.464188,178.609512 175.081772,176.590347 175.808868,174.124588 
	C176.555008,172.365784 177.782379,171.483215 178.459381,170.175201 
	C180.128510,166.950439 182.470306,166.839310 185.472992,169.253510 
	C187.043030,176.280319 186.229858,183.007812 187.014008,189.641937 
	C187.184021,191.080292 187.222885,192.993515 185.369598,194.607147 
z"/>
<path fill="#6B143B" opacity="1.000000" stroke="none" 
	d="
M145.243927,194.750519 
	C142.629440,195.000000 140.258896,195.000000 137.444168,195.000000 
	C134.272430,191.133682 133.931198,182.935760 136.386429,179.239746 
	C138.112503,176.641403 140.481934,175.349075 143.697891,175.263184 
	C153.511475,175.001022 156.318146,177.178452 158.330582,187.421478 
	C157.089050,190.750641 155.128937,190.557236 153.369781,188.654922 
	C151.708527,186.858475 150.502792,184.101074 147.539001,185.656891 
	C144.724960,187.134094 145.912247,189.901947 146.304459,192.285110 
	C146.446579,193.148697 146.078720,193.879425 145.243927,194.750519 
z"/>
<path fill="#331A43" opacity="1.000000" stroke="none" 
	d="
M176.739594,180.758789 
	C177.799225,185.386932 178.643280,189.778046 177.090851,194.601044 
	C173.638718,195.000000 170.277420,195.000000 166.458069,195.000000 
	C163.251755,192.877045 163.074265,189.653809 162.931854,186.687531 
	C162.816650,184.287949 162.501617,182.302185 160.265518,180.479736 
	C159.295166,178.617447 159.673706,176.947937 159.430313,174.989502 
	C159.550964,174.356735 159.601456,174.107834 159.789795,173.511139 
	C161.553482,171.323761 163.564697,171.439713 164.373810,173.464737 
	C166.639832,179.136047 170.649475,181.258057 176.739594,180.758789 
z"/>
<path fill="#2C1A4B" opacity="1.000000" stroke="none" 
	d="
M85.444168,195.000000 
	C85.003662,188.311478 85.007317,181.622940 85.013741,174.465698 
	C87.690758,171.565521 89.883743,174.354767 92.718964,174.869629 
	C93.354683,175.293167 93.576347,175.515900 94.001038,176.173523 
	C94.512604,181.109772 94.830849,185.600037 94.735558,190.130554 
	C94.702156,191.718552 94.717094,193.054840 93.347404,194.639511 
	C90.629440,195.000000 88.258888,195.000000 85.444168,195.000000 
z"/>
<path fill="#5F143B" opacity="1.000000" stroke="none" 
	d="
M156.777466,189.368256 
	C155.128555,177.123505 151.579773,176.346497 143.357300,177.054688 
	C139.019714,177.428284 136.482910,180.264236 136.584885,184.663193 
	C136.657852,187.810226 136.857559,190.954315 137.000351,194.549866 
	C135.933334,195.000000 134.866653,195.000000 133.399994,195.000000 
	C128.532806,189.759430 131.142044,184.416702 133.113464,179.331818 
	C134.634949,175.407471 137.869034,172.704376 142.123474,170.724838 
	C143.142639,170.504135 143.734482,170.478195 144.769958,170.535797 
	C157.349472,173.765137 161.679153,179.586655 159.756378,190.795013 
	C159.011261,191.479340 158.473541,191.634079 157.479523,191.451370 
	C156.671387,190.857300 156.497940,190.335175 156.777466,189.368256 
z"/>
<path fill="#73143D" opacity="1.000000" stroke="none" 
	d="
M156.701492,188.833618 
	C156.999329,189.444717 157.000946,189.888687 157.003021,190.665619 
	C157.369553,192.228256 157.499374,193.423370 156.249084,194.726517 
	C152.638718,195.000000 149.277420,195.000000 145.458069,195.000000 
	C144.366943,193.146286 143.408493,191.331848 143.178726,189.429428 
	C142.852142,186.725540 142.317245,183.497650 145.971603,182.449448 
	C149.549179,181.423279 152.850967,181.744034 154.629074,185.799423 
	C155.075989,186.818756 155.805573,187.714142 156.701492,188.833618 
z"/>
<path fill="#59143C" opacity="1.000000" stroke="none" 
	d="
M121.416664,195.000000 
	C121.267540,188.388733 120.649315,181.989532 116.278740,176.204376 
	C111.343658,172.196228 106.357704,171.779709 101.346840,175.032623 
	C99.785553,176.046158 98.560722,176.591278 96.593964,175.412033 
	C94.659477,172.461227 96.881310,170.764435 98.170067,168.439362 
	C98.970375,167.791046 99.513176,167.586121 100.538635,167.503723 
	C104.993439,167.512009 109.012505,167.470123 113.445297,167.553619 
	C114.127106,167.621307 114.394951,167.664520 115.033325,167.860474 
	C117.461998,171.137726 122.300674,171.834076 122.906555,176.714737 
	C123.652779,177.862137 124.253227,178.659180 124.838409,179.910294 
	C125.606316,181.115768 126.002403,182.059387 126.101570,183.509827 
	C125.337425,185.772842 124.884048,187.514725 126.257996,189.450882 
	C127.285629,190.899002 128.023361,192.703033 126.253555,194.720001 
	C124.611107,195.000000 123.222221,195.000000 121.416664,195.000000 
z"/>
<path fill="#651640" opacity="1.000000" stroke="none" 
	d="
M96.424988,175.560425 
	C101.669952,173.592636 106.118149,170.871063 111.337860,172.589584 
	C113.050255,173.153366 114.965431,173.298645 115.883514,175.649506 
	C113.294151,175.366699 110.824287,173.850372 107.891075,174.017181 
	C105.437340,174.156738 103.099625,174.557190 102.422737,177.273071 
	C101.741112,180.007965 101.220787,183.164276 104.175095,184.862488 
	C107.969894,187.043823 109.452896,190.567444 110.914688,194.650513 
	C109.933327,195.000000 108.866661,195.000000 107.399994,195.000000 
	C102.461014,193.368423 99.524071,189.838364 96.364067,185.980713 
	C95.980202,185.475204 95.866264,185.241714 95.673416,184.621399 
	C95.544678,181.531250 95.231560,178.819214 96.424988,175.560425 
z"/>
<path fill="#53143C" opacity="1.000000" stroke="none" 
	d="
M126.437500,195.000000 
	C125.435112,191.488586 122.375969,188.538422 123.831879,184.304810 
	C128.281525,182.208313 131.355164,179.289352 132.878433,174.800873 
	C133.481018,173.025269 134.543655,171.547897 137.067337,171.345703 
	C139.165039,171.027908 140.909210,169.824554 142.814987,171.696503 
	C139.722961,174.842285 135.353683,176.450546 133.872086,181.242249 
	C132.551575,185.513046 133.262573,189.800552 132.999878,194.537506 
	C130.958328,195.000000 128.916672,195.000000 126.437500,195.000000 
z"/>
<path fill="#461644" opacity="1.000000" stroke="none" 
	d="
M98.658264,168.669998 
	C98.350754,170.764557 97.706985,172.521286 97.025177,174.630219 
	C96.987144,174.982391 96.996208,174.996979 96.989929,174.994232 
	C95.250237,178.074112 95.880989,181.272949 96.745438,184.739822 
	C96.973251,185.007584 96.995728,185.004501 96.987091,185.012772 
	C98.277794,188.075394 101.316414,190.468918 100.256241,194.661209 
	C97.958336,195.000000 95.916664,195.000000 93.437500,195.000000 
	C92.987534,188.986160 92.975060,182.972336 92.961411,176.491806 
	C91.419991,171.072479 93.574348,167.981445 98.658264,168.669998 
z"/>
<path fill="#2C1A42" opacity="1.000000" stroke="none" 
	d="
M185.399994,195.000000 
	C184.993118,186.652527 184.986252,178.305054 184.975998,169.490387 
	C184.854950,168.840820 184.737274,168.658447 184.824219,168.222839 
	C187.599487,169.449112 187.475372,172.200134 187.700836,174.506516 
	C188.336990,181.013794 188.596069,187.557922 189.001892,194.543762 
	C187.933334,195.000000 186.866653,195.000000 185.399994,195.000000 
z"/>
<path fill="#471643" opacity="1.000000" stroke="none" 
	d="
M160.474304,180.648651 
	C165.433792,181.398285 164.697479,185.442459 165.395859,188.700729 
	C165.776001,190.474411 165.805939,192.323181 165.996918,194.569031 
	C164.611115,195.000000 163.222214,195.000000 161.416656,195.000000 
	C160.601059,194.567520 160.264557,194.090942 159.886581,193.143402 
	C160.225372,188.920776 159.861420,185.115051 160.474304,180.648651 
z"/>
<path fill="#581743" opacity="1.000000" stroke="none" 
	d="
M100.437500,195.000000 
	C98.565117,192.091858 96.203278,189.489532 96.980011,185.436127 
	C100.899895,187.447739 104.103493,190.623825 106.875092,194.690659 
	C104.958336,195.000000 102.916664,195.000000 100.437500,195.000000 
z"/>
<path fill="#6B143B" opacity="1.000000" stroke="none" 
	d="
M156.333344,195.000000 
	C156.216721,193.866058 156.433426,192.732117 156.826813,191.298370 
	C157.440826,191.003693 157.878174,191.008820 158.643555,191.016861 
	C159.359512,191.308655 159.625259,191.683975 159.769745,192.500107 
	C159.576675,193.579132 159.048645,194.048141 158.252975,194.752960 
	C157.555557,195.000000 157.111099,195.000000 156.333344,195.000000 
z"/>
<path fill="#5F143B" opacity="1.000000" stroke="none" 
	d="
M158.375000,195.000000 
	C158.215454,194.484375 158.430908,193.968765 158.810837,193.225647 
	C159.365112,192.618423 159.828583,192.472290 160.677856,192.780762 
	C160.992554,193.445862 160.995102,193.889908 160.998810,194.666962 
	C160.250000,195.000000 159.500000,195.000000 158.375000,195.000000 
z"/>
<path fill="#4E0862" opacity="1.000000" stroke="none" 
	d="
M75.994118,129.211761 
	C76.090118,123.899605 76.098999,118.990105 76.064026,113.626877 
	C74.221825,107.945930 75.775322,102.529716 75.239067,96.817184 
	C76.700165,91.613411 75.675964,86.724274 76.012054,81.467636 
	C76.023827,76.011200 76.029976,70.982986 76.061310,65.489929 
	C76.258888,64.867813 76.431297,64.710541 76.941101,64.462585 
	C77.905449,64.239136 78.413475,64.837715 79.047791,64.659599 
	C78.845520,64.444923 78.602814,64.288689 78.010635,64.060669 
	C77.513466,63.807842 77.325317,63.685230 76.958649,63.276939 
	C77.409798,60.735252 78.065758,58.496044 80.696777,57.175739 
	C82.015762,56.094841 83.161026,55.585072 85.011734,56.165962 
	C88.100945,59.955109 86.792717,63.749943 86.109573,67.981308 
	C86.348480,69.657768 86.162079,70.830666 85.732681,72.395233 
	C85.429039,75.663574 83.566856,78.295258 84.514542,81.730530 
	C84.554970,89.230286 84.323647,96.311867 84.611633,103.822693 
	C84.051025,107.300285 83.612038,110.347504 84.401260,113.849861 
	C84.481285,116.006233 84.584045,117.733284 84.365906,119.909477 
	C83.341217,125.636536 83.415794,131.057495 81.987610,136.710464 
	C81.168732,137.852295 80.372078,138.206970 79.008751,138.265961 
	C74.236053,136.437286 76.405571,132.612732 75.994118,129.211761 
z"/>
<path fill="#34061D" opacity="1.000000" stroke="none" 
	d="
M186.921494,104.537514 
	C186.893112,114.652031 186.850433,124.297348 186.793854,134.402435 
	C186.360657,135.524078 186.097076,136.231903 186.217545,137.414673 
	C186.526810,138.599396 186.457108,139.376785 185.875427,140.466766 
	C184.472076,141.595245 183.229721,142.196442 181.392487,142.385788 
	C178.933167,142.268478 178.066605,140.666077 176.763397,138.930969 
	C176.134079,138.070557 175.868073,137.524460 175.639526,136.454529 
	C173.984253,117.444557 175.455811,98.894409 175.362122,80.351067 
	C175.351913,78.332397 175.874756,76.291298 173.859406,74.308548 
	C171.865677,71.225960 173.851898,68.614815 174.017365,65.533493 
	C174.634308,64.671288 175.139771,64.380920 176.182465,64.292458 
	C176.880081,64.438614 177.141068,64.559128 177.690674,64.992645 
	C179.793854,70.690605 180.349091,76.198555 180.629990,81.898018 
	C181.368637,96.885307 181.333405,111.886940 182.019089,126.869492 
	C181.965012,127.538101 182.708237,126.471931 182.089523,126.720215 
	C181.248978,114.947540 181.806580,103.141296 181.281891,90.929451 
	C181.975494,87.265381 180.531113,83.755943 183.015762,80.462906 
	C184.363281,79.887047 185.266876,79.993530 186.468597,80.840355 
	C186.844620,88.799774 186.875900,96.434036 186.921494,104.537514 
z"/>
<path fill="#041329" opacity="1.000000" stroke="none" 
	d="
M83.195869,54.291405 
	C83.575882,48.479923 88.704948,48.010235 92.217491,46.090107 
	C94.374588,44.910931 97.393448,45.050793 100.026947,45.041294 
	C120.976974,44.965691 141.927963,45.080502 162.877274,44.937309 
	C168.380936,44.899689 172.931702,46.582043 176.913330,50.740208 
	C177.292206,52.454098 176.369995,53.012001 174.886719,53.543079 
	C171.356674,54.842728 169.070999,52.021973 165.842773,51.795013 
	C164.479462,51.429710 163.509705,51.098366 162.150055,50.719021 
	C161.250275,50.507843 160.739594,50.348900 159.865021,49.972939 
	C140.342636,49.069717 121.186897,49.819096 102.038345,49.430035 
	C101.017052,49.409283 99.700356,49.595024 98.658829,51.019165 
	C97.946808,51.726315 97.484695,52.034077 96.574020,52.325325 
	C92.703453,51.961708 89.499062,52.428288 86.656235,55.318989 
	C85.243774,55.439251 84.232147,55.373798 83.195869,54.291405 
z"/>
<path fill="#230A25" opacity="1.000000" stroke="none" 
	d="
M173.441071,52.546032 
	C174.611816,51.951393 175.526138,51.675564 176.754166,51.221817 
	C181.209549,53.716515 184.227509,57.175339 184.948624,62.638969 
	C184.581436,63.365784 184.140625,63.651012 183.265198,63.932373 
	C181.425339,63.912167 180.546127,62.896248 179.366150,61.694489 
	C178.713074,58.491821 176.111954,58.719818 173.913818,57.692398 
	C172.753998,55.979427 172.297592,54.486698 173.441071,52.546032 
z"/>
<path fill="#0A0A2D" opacity="1.000000" stroke="none" 
	d="
M75.827286,95.767975 
	C76.163956,101.381516 77.037666,106.835152 76.054367,112.731422 
	C73.187057,111.325317 74.258232,108.405144 74.006332,105.422432 
	C74.186348,102.199677 73.580605,99.339378 74.861961,96.255447 
	C75.224342,95.800125 75.399261,95.704300 75.827286,95.767975 
z"/>
<path fill="#190D25" opacity="1.000000" stroke="none" 
	d="
M186.856873,80.684204 
	C186.153687,81.100403 185.494064,81.035294 184.500885,80.959747 
	C182.842865,80.227798 182.297211,78.772041 182.562393,77.643959 
	C183.486130,73.714226 181.889465,69.809006 183.015472,65.547516 
	C183.601654,65.015587 183.882904,64.859383 184.624878,64.846588 
	C188.366043,67.531570 186.575348,71.126335 186.938934,74.251129 
	C187.166504,76.207077 186.929169,78.217125 186.856873,80.684204 
z"/>
<path fill="#2B134F" opacity="1.000000" stroke="none" 
	d="
M76.253235,95.567047 
	C75.908264,95.926956 75.736145,95.926422 75.306725,95.910919 
	C75.350830,91.187988 74.446426,86.429153 75.831764,81.399246 
	C77.563393,85.721176 77.101669,90.460800 76.253235,95.567047 
z"/>
<path fill="#230D43" opacity="1.000000" stroke="none" 
	d="
M82.752541,54.160789 
	C84.042053,53.946526 85.093002,53.935295 86.537865,53.919624 
	C87.081558,54.090965 87.231339,54.266747 87.425125,54.786385 
	C87.257027,56.133884 86.612152,56.727753 85.319794,57.062313 
	C83.913666,57.069241 82.852844,57.049366 81.393822,57.026718 
	C81.501740,56.137241 82.007858,55.250534 82.752541,54.160789 
z"/>
<path fill="#2B134F" opacity="1.000000" stroke="none" 
	d="
M77.426895,64.759109 
	C77.011597,65.018234 76.826317,65.019318 76.363754,65.022751 
	C75.621780,64.315422 75.617203,63.682178 76.586678,63.084934 
	C76.780144,62.991264 77.218048,63.068523 77.436684,63.108929 
	C77.790253,63.599754 77.790794,64.050331 77.426895,64.759109 
z"/>
<path fill="#34061D" opacity="1.000000" stroke="none" 
	d="
M185.056717,64.661377 
	C184.909088,65.003532 184.732544,65.017075 184.290588,65.040833 
	C182.919327,65.150223 182.638367,64.505714 182.954849,63.254852 
	C183.614548,62.960194 184.005081,62.975929 184.687698,63.003319 
	C184.995773,63.454227 185.011780,63.893490 185.056717,64.661377 
z"/>
<path fill="#0C1A37" opacity="1.000000" stroke="none" 
	d="
M82.274841,158.263153 
	C78.410057,156.235504 74.942169,155.081451 70.726295,156.596405 
	C67.100891,157.899155 63.283867,155.968384 59.532898,155.665146 
	C59.026424,155.624191 58.245590,154.954010 58.166420,154.479355 
	C57.996365,153.459732 58.954693,153.089584 59.761631,153.023468 
	C62.346527,152.811691 63.626266,150.706390 65.696701,149.154587 
	C69.991257,149.329300 73.822746,150.592743 78.151077,151.152069 
	C81.906647,154.105408 85.773560,154.492371 90.333984,153.496948 
	C117.842789,155.384689 144.940567,154.642822 172.487686,154.001450 
	C174.996643,154.687622 176.957733,153.517899 179.388306,153.889984 
	C181.448013,155.388123 181.283600,156.887329 179.967499,158.811691 
	C179.337250,159.837830 178.862442,160.481537 178.170532,161.454010 
	C177.703720,161.907990 177.482712,162.052368 176.888168,162.330414 
	C175.500702,162.830856 174.463287,163.050766 172.970413,162.973557 
	C167.502762,165.021133 162.485077,162.499313 157.424911,162.792465 
	C155.844666,162.884003 154.243607,162.619827 152.280518,163.272186 
	C149.869980,163.726501 147.847031,163.330139 145.404129,163.486771 
	C138.271408,161.470871 131.546066,162.782578 124.424072,163.322479 
	C123.218124,163.658005 122.420830,163.897659 121.247498,164.294983 
	C120.040512,164.512711 119.228424,164.417923 118.024734,164.354187 
	C111.806137,162.124771 105.952606,161.554199 99.675995,164.099091 
	C98.792107,164.348175 98.272171,164.386505 97.365936,164.279816 
	C95.351570,162.856720 93.934944,161.764206 91.371254,162.642227 
	C87.447220,163.986145 85.216965,160.533218 82.274841,158.263153 
z"/>
<path fill="#0C1837" opacity="1.000000" stroke="none" 
	d="
M78.338989,153.163574 
	C73.767418,152.904648 69.436768,153.337387 66.149521,149.319641 
	C69.541595,145.711029 73.589172,142.802597 74.809998,137.307587 
	C77.188057,136.445892 77.202316,138.516357 78.244865,139.883804 
	C79.331818,142.864517 81.246239,144.927750 82.639023,147.725891 
	C82.670738,148.386398 82.639122,148.654068 82.561951,149.329056 
	C82.317314,152.053299 81.203636,153.406876 78.338989,153.163574 
z"/>
<path fill="#241846" opacity="1.000000" stroke="none" 
	d="
M92.201019,175.688629 
	C89.642776,176.195755 87.591255,175.477615 85.345665,174.132111 
	C84.793816,169.516006 84.728439,164.935623 78.386078,164.052399 
	C78.014610,163.264542 78.012161,162.513031 78.013062,161.386353 
	C79.078613,161.001404 80.140800,160.991608 81.601654,160.977264 
	C82.837570,160.243927 83.770058,159.925186 85.180374,160.507599 
	C87.043465,164.826462 91.144920,165.063202 94.565208,166.912857 
	C94.615051,170.146866 92.125168,172.374908 92.201019,175.688629 
z"/>
<path fill="#101B3E" opacity="1.000000" stroke="none" 
	d="
M85.217880,162.342041 
	C84.208061,161.691116 83.423271,161.374161 82.319397,161.014954 
	C82.000420,160.229340 82.000542,159.485947 82.001099,158.370361 
	C85.966385,159.289276 89.697182,161.580719 94.216835,160.325592 
	C95.321526,160.018829 96.278000,161.172623 96.881363,162.660858 
	C94.191765,167.764053 88.912575,167.617813 85.217880,162.342041 
z"/>
<path fill="#0A0A2D" opacity="1.000000" stroke="none" 
	d="
M77.321701,141.252914 
	C76.472275,139.854340 75.922592,138.688614 75.185844,137.263092 
	C74.995438,135.613022 74.992096,134.222748 74.983902,132.415497 
	C74.419914,131.312759 74.247772,130.548630 74.736725,129.349243 
	C75.147728,128.973709 75.334846,128.944901 75.801605,128.862610 
	C77.610748,131.092575 75.899956,134.174072 78.098137,136.600281 
	C78.660828,137.484604 79.235161,137.917465 80.046616,138.627411 
	C80.630318,139.608521 80.681305,140.318069 80.077133,141.296051 
	C79.063179,141.868637 78.336868,141.858963 77.321701,141.252914 
z"/>
<path fill="#0E1838" opacity="1.000000" stroke="none" 
	d="
M74.713943,129.123779 
	C74.970818,129.751495 74.981033,130.500473 74.985153,131.623993 
	C73.628082,131.300095 72.850983,130.494995 74.713943,129.123779 
z"/>
<path fill="#0E1B3A" opacity="1.000000" stroke="none" 
	d="
M178.330200,159.298645 
	C178.588562,157.865234 179.181412,156.746323 179.891083,155.332703 
	C180.314804,152.423691 181.067413,149.786285 179.545105,146.915314 
	C179.783569,143.418991 182.873230,142.540070 184.690048,140.147125 
	C184.933105,139.153824 184.949463,138.455734 184.992355,137.409470 
	C185.373108,136.676605 185.814743,136.518341 186.637268,136.767090 
	C188.454834,137.987457 188.869324,139.607422 189.351761,141.210831 
	C190.048264,143.525696 191.567245,144.946655 194.054245,144.935562 
	C197.082550,144.922028 199.595901,146.351196 201.806152,148.031738 
	C207.270966,152.186844 213.293396,153.413971 220.053528,153.090195 
	C228.020020,152.708618 236.019394,152.968369 244.003647,153.041840 
	C245.540543,153.056000 247.995636,152.506424 248.080185,154.708282 
	C248.177856,157.252167 245.582245,156.934250 243.869354,156.944763 
	C232.058777,157.017303 220.219254,156.495544 208.446075,157.166153 
	C199.892319,157.653381 191.193390,156.407822 182.381500,158.914307 
	C181.040451,160.042160 179.916962,160.178589 178.330200,159.298645 
z"/>
<path fill="#26183F" opacity="1.000000" stroke="none" 
	d="
M184.845917,161.823151 
	C184.998505,162.754013 184.994019,163.508652 184.986282,164.640564 
	C182.843140,167.438507 180.319458,167.479660 177.168213,165.915619 
	C175.811050,164.429123 175.737228,163.154129 176.692688,161.405823 
	C177.003052,161.002258 177.000000,161.000000 177.000931,161.001480 
	C178.961624,159.425659 181.088440,160.172318 183.594131,160.780518 
	C184.241882,161.203644 184.471848,161.418335 184.845917,161.823151 
z"/>
<path fill="#181A3F" opacity="1.000000" stroke="none" 
	d="
M183.803070,160.798462 
	C181.958099,161.003098 179.917236,161.003372 177.439133,161.003296 
	C177.221375,160.482849 177.440887,159.962738 177.828064,159.213379 
	C179.063080,158.989594 180.130432,158.995056 181.597870,159.000946 
	C182.534363,159.532303 183.070770,160.063202 183.803070,160.798462 
z"/>
<path fill="#190D25" opacity="1.000000" stroke="none" 
	d="
M186.934204,136.626175 
	C186.515549,136.995743 186.088013,137.011856 185.339691,137.044617 
	C185.443649,136.430679 185.868408,135.800079 186.536575,135.015839 
	C186.828415,135.332367 186.876862,135.802536 186.934204,136.626175 
z"/>
<path fill="#241846" opacity="1.000000" stroke="none" 
	d="
M75.222496,169.750916 
	C73.993942,167.498871 75.333397,166.171707 77.681152,165.095764 
	C77.608116,166.768036 76.582870,168.172943 75.222496,169.750916 
z"/>
<path fill="#34153E" opacity="1.000000" stroke="none" 
	d="
M176.676788,165.252869 
	C179.381744,165.016876 181.741180,165.013687 184.541840,165.014175 
	C184.994370,165.756058 185.005707,166.494247 185.022919,167.601044 
	C185.019348,168.145096 185.009888,168.320587 184.986511,168.759644 
	C181.036957,168.269058 180.017273,172.068253 177.318634,173.868256 
	C175.860016,173.401749 175.622971,172.324707 175.530426,170.744675 
	C175.488617,169.207886 175.455215,168.090683 175.757446,166.581406 
	C176.024872,165.949051 176.178070,165.717361 176.676788,165.252869 
z"/>
<path fill="#2A1A42" opacity="1.000000" stroke="none" 
	d="
M176.711380,169.767120 
	C176.982758,171.061035 176.992264,172.132874 177.006012,173.606949 
	C177.005569,176.046768 177.000885,178.084335 176.994614,180.558594 
	C176.529709,181.161392 176.006134,181.238907 175.612076,181.506866 
	C169.440353,185.703751 169.429840,185.717239 165.613220,178.734848 
	C164.518036,176.731216 163.828384,174.452667 161.318542,173.125198 
	C159.960434,172.313049 159.695557,171.309097 159.942444,169.768356 
	C160.222672,169.188004 160.376221,168.982697 160.851471,168.583893 
	C163.799210,167.895782 165.185440,170.077820 166.499908,171.465530 
	C169.171295,174.285797 171.158920,174.073853 173.275909,171.141403 
	C174.066620,170.046066 174.793610,168.890518 176.711380,169.767120 
z"/>
<path fill="#36153F" opacity="1.000000" stroke="none" 
	d="
M160.951965,168.659210 
	C160.984756,170.086594 160.992935,171.141724 161.005676,172.592072 
	C161.006485,173.158966 161.002716,173.330658 160.993805,173.759903 
	C159.868576,175.141113 158.545517,175.057236 156.765442,174.576035 
	C155.505814,174.352493 154.849960,173.838470 153.907043,173.021942 
	C152.128418,169.762146 149.204056,170.495453 146.874466,170.475647 
	C144.157257,170.452530 141.362381,170.288269 138.285553,171.079895 
	C134.672852,171.352768 133.691330,173.983444 132.407394,176.250656 
	C131.242722,178.307297 130.462570,180.848602 127.463371,180.763596 
	C124.701530,180.685287 123.501678,178.456329 122.648102,176.364456 
	C121.260925,172.964859 118.721588,170.974915 115.295181,169.244370 
	C115.011169,168.991013 115.000610,168.999390 115.003036,168.993805 
	C110.593323,167.131668 106.084869,167.973816 101.287903,168.746857 
	C100.545410,168.989243 100.102364,168.994125 99.326927,169.003418 
	C94.759651,168.967728 94.025719,172.233368 93.013283,175.655609 
	C92.791748,176.019333 92.623260,176.013535 92.201462,175.998352 
	C91.771278,173.054260 92.392265,170.297302 93.898003,167.355835 
	C94.807396,163.721848 98.027992,164.770721 100.422577,163.496063 
	C104.590904,162.290649 108.420166,161.729385 112.780502,162.107300 
	C116.841179,164.192413 121.082611,164.572525 124.773766,166.517700 
	C126.218010,167.278778 128.250397,167.281052 129.743134,166.660767 
	C138.369217,163.076431 147.288223,164.067062 156.592651,164.748047 
	C157.963409,165.265854 158.775269,165.952728 159.982132,166.706116 
	C160.590179,167.346512 160.809113,167.792053 160.951965,168.659210 
z"/>
<path fill="#47133E" opacity="1.000000" stroke="none" 
	d="
M156.676147,173.321609 
	C158.102264,173.295120 159.210709,173.580475 160.653900,173.941650 
	C160.998657,175.722183 161.008652,177.426895 161.021149,179.557129 
	C161.023621,179.982651 161.000443,179.999359 160.989532,180.006836 
	C156.027771,180.357025 156.494293,176.777176 156.676147,173.321609 
z"/>
<path fill="#53143C" opacity="1.000000" stroke="none" 
	d="
M156.747803,172.880615 
	C157.447220,175.590408 157.478180,178.379089 160.653152,179.897064 
	C160.985443,184.034607 160.992233,188.054886 160.994522,192.538513 
	C160.542572,193.001205 160.095139,193.000595 159.311508,192.999069 
	C158.976135,192.558365 158.976959,192.118561 158.974701,191.349274 
	C158.968567,187.745438 159.181000,184.496475 157.705826,181.353485 
	C155.712936,177.107452 153.427353,173.510056 147.942612,173.891327 
	C146.945587,173.960632 146.025513,173.481476 145.185028,172.326935 
	C147.929047,169.819504 151.053864,170.127701 154.632904,171.669098 
	C155.514420,172.241287 156.008087,172.496399 156.747803,172.880615 
z"/>
<path fill="#491338" opacity="1.000000" stroke="none" 
	d="
M154.927261,171.614899 
	C151.979813,171.993881 148.938873,172.001587 145.442078,172.016098 
	C144.549606,172.023376 144.112991,172.023849 143.349243,172.028290 
	C141.266846,172.328201 139.511581,172.624115 137.376633,172.956970 
	C136.156113,172.016891 135.893753,170.949219 136.745895,169.390823 
	C141.293671,169.021805 145.583939,168.972092 149.873352,169.013443 
	C151.813751,169.032150 153.971237,168.748734 154.927261,171.614899 
z"/>
<path fill="#47143D" opacity="1.000000" stroke="none" 
	d="
M136.694946,169.158752 
	C137.001999,170.090012 137.000244,171.145630 136.997711,172.597580 
	C132.946274,175.169434 132.956909,179.868042 130.694626,183.159622 
	C128.981735,185.651840 127.365913,188.082275 124.219246,184.225739 
	C123.751862,183.193451 123.502167,182.387802 123.125122,181.291687 
	C122.120255,180.357986 122.051338,179.226776 121.233414,178.199097 
	C121.601387,173.446228 116.478073,172.891068 115.112839,169.317535 
	C118.332176,168.587860 120.367683,169.923569 122.163361,172.898209 
	C126.893295,180.733521 127.720825,180.620361 133.077713,172.882462 
	C134.012909,171.531601 134.807526,170.045258 136.694946,169.158752 
z"/>
<path fill="#47143D" opacity="1.000000" stroke="none" 
	d="
M101.454147,168.991119 
	C105.373894,165.603012 109.954102,166.444092 114.794609,168.672729 
	C110.643593,168.991455 106.281715,168.994675 101.454147,168.991119 
z"/>
<path fill="#53143C" opacity="1.000000" stroke="none" 
	d="
M121.066666,178.298096 
	C122.064430,178.446762 122.731979,179.209961 122.951515,180.681885 
	C121.936119,180.550125 121.270546,179.784668 121.066666,178.298096 
z"/>
<path fill="#59143C" opacity="1.000000" stroke="none" 
	d="
M96.979797,184.552795 
	C93.824844,181.991318 94.454109,178.736069 96.674568,175.195618 
	C96.984550,178.027008 96.985443,181.062515 96.979797,184.552795 
z"/>
<path fill="#170B3A" opacity="1.000000" stroke="none" 
	d="
M83.557693,73.207092 
	C83.803474,71.809502 83.860634,70.779961 83.950562,69.365105 
	C85.354469,67.494141 86.388359,65.308357 89.411514,66.841263 
	C91.884262,71.314445 87.987419,74.706940 88.292343,78.635376 
	C88.316650,78.948486 88.445221,79.255051 88.441048,80.025940 
	C86.923187,88.269768 87.278770,96.078896 88.212204,104.311943 
	C89.357140,107.029518 89.438454,109.392303 88.793076,112.222702 
	C87.328331,114.849739 87.707916,117.386497 87.188492,120.158592 
	C86.955223,120.777756 86.808067,121.003204 86.330551,121.460297 
	C85.739334,121.754242 85.478485,121.816528 84.819153,121.833649 
	C83.906769,121.593979 83.501404,121.265656 83.109451,120.415771 
	C83.010361,118.296494 83.007126,116.564049 83.007462,114.398613 
	C82.989464,111.233627 83.004990,108.501587 82.998932,105.397034 
	C83.007057,97.321815 83.015640,89.619141 83.024452,81.446350 
	C83.115707,78.508095 82.685455,76.015709 83.557693,73.207092 
z"/>
<path fill="#2B134F" opacity="1.000000" stroke="none" 
	d="
M89.557220,66.437073 
	C87.463150,67.583946 86.046555,68.201782 84.306656,68.899704 
	C84.135773,65.288315 85.433708,61.700409 84.977325,57.521637 
	C85.450569,56.476570 85.926659,55.864025 86.670303,55.122540 
	C87.421509,54.614170 87.969780,54.447247 88.988403,54.668785 
	C90.996941,56.556881 90.294533,58.745747 90.625046,61.163509 
	C90.522041,63.039082 90.999718,64.532280 89.557220,66.437073 
z"/>
<path fill="#2B134F" opacity="1.000000" stroke="none" 
	d="
M82.816597,120.378555 
	C83.273216,120.256111 83.532829,120.483292 83.970383,120.899063 
	C84.874725,121.879074 85.674095,122.603394 86.517014,123.809418 
	C87.271294,125.446373 86.797348,126.817352 87.004639,128.540863 
	C87.159523,130.933228 86.388451,132.668274 85.426315,134.772400 
	C84.631042,136.362503 83.922775,137.518677 81.638321,137.281982 
	C81.495644,131.529129 82.057617,126.128647 82.816597,120.378555 
z"/>
<path fill="#730B85" opacity="1.000000" stroke="none" 
	d="
M77.316483,65.365326 
	C77.286232,64.599449 77.375603,64.181747 77.560150,63.456692 
	C79.098427,62.580524 80.343544,60.482426 82.040688,61.886162 
	C83.586891,63.165058 82.461441,65.001579 81.971588,66.528069 
	C81.379776,68.372292 80.602791,70.157089 79.713768,72.466927 
	C77.169144,70.271187 78.340523,67.650032 77.316483,65.365326 
z"/>
<path fill="#2B134F" opacity="1.000000" stroke="none" 
	d="
M82.810638,105.360672 
	C84.388756,107.722717 84.243103,110.491524 83.194748,113.629501 
	C81.581673,111.270401 81.751266,108.500114 82.810638,105.360672 
z"/>
<path fill="#2B134F" opacity="1.000000" stroke="none" 
	d="
M83.477280,73.068779 
	C83.985573,75.336182 84.319946,77.837837 83.209091,80.627960 
	C81.750717,78.385063 81.387238,75.815681 83.477280,73.068779 
z"/>
<path fill="#2B134F" opacity="1.000000" stroke="none" 
	d="
M79.347153,139.217621 
	C78.727646,138.491409 78.495117,137.970123 78.262276,137.158112 
	C78.929443,136.890121 79.596924,136.912888 80.599030,136.932617 
	C80.933662,136.929596 80.989136,136.987961 81.017059,137.016983 
	C81.770584,138.479431 81.305054,139.255844 79.347153,139.217621 
z"/>
<path fill="#050C1D" opacity="1.000000" stroke="none" 
	d="
M77.105530,141.353424 
	C77.766403,141.013916 78.510857,141.007767 79.627899,140.999207 
	C80.980400,139.984009 82.128593,139.190216 83.630623,138.311646 
	C85.984505,137.733292 87.672394,136.704498 89.312592,134.931198 
	C91.132645,133.386948 93.001114,133.487534 95.204559,133.529572 
	C101.276764,135.918167 107.003197,138.267395 113.109169,133.629425 
	C114.443619,132.938324 115.757721,132.799103 116.383286,131.184082 
	C116.573120,130.702271 116.647110,130.507019 116.861832,130.030090 
	C117.395493,128.999817 117.697250,128.223694 117.712555,127.041306 
	C117.704140,126.502045 117.705055,126.285461 117.765854,125.748695 
	C118.021118,124.794106 118.418953,124.273651 118.951271,123.453491 
	C119.417336,122.563354 119.465553,121.907860 119.473289,120.906906 
	C119.481499,119.881546 119.485947,119.193802 119.489090,118.151047 
	C119.490288,117.072624 119.489594,116.349228 119.380104,115.257797 
	C119.283806,114.385902 119.221405,113.885109 119.124542,112.998734 
	C118.991463,111.562950 118.881943,110.514053 118.734238,109.056534 
	C118.675987,107.526932 118.552261,106.412979 118.514183,104.858200 
	C118.943367,99.438019 117.498627,94.272766 120.234703,89.158318 
	C123.888367,85.404305 128.628418,85.234978 133.197784,83.606552 
	C133.902313,83.531609 134.186554,83.515114 134.898804,83.483170 
	C138.507980,83.188812 141.693298,82.872337 144.819153,82.241623 
	C150.221405,81.151573 151.145691,81.700096 152.111725,87.058228 
	C152.405792,88.689377 152.388992,90.339340 152.413773,92.390457 
	C152.408768,94.062103 152.372391,95.330048 152.393967,96.968765 
	C152.426819,99.086052 152.179153,100.816841 152.089935,102.947510 
	C152.073792,103.603027 152.062134,103.868134 152.030914,104.537010 
	C151.995193,105.489426 151.965622,106.037346 151.807007,106.991234 
	C150.641846,109.190819 149.202728,110.383102 146.640320,110.430771 
	C144.263275,110.662163 143.792969,107.683098 141.325806,108.320465 
	C140.789536,108.439705 140.571701,108.474510 140.023560,108.553619 
	C137.815918,109.303307 136.681992,110.813103 135.526840,112.694122 
	C135.349457,113.420273 135.246994,113.832558 135.089691,114.553055 
	C134.967682,115.281319 134.883682,115.698051 134.716827,116.433517 
	C134.085617,118.637054 135.051437,120.306076 135.445084,122.404953 
	C138.321472,129.646103 147.508087,130.400589 153.036804,124.246315 
	C154.351227,122.783165 154.775772,120.570328 157.186035,119.679825 
	C157.764954,119.587769 157.998444,119.570358 158.581619,119.555115 
	C162.705933,120.177032 162.060349,122.511238 161.140137,125.061157 
	C160.492584,126.855507 159.104568,128.852280 160.640457,130.601822 
	C162.334778,132.531845 164.638321,131.438446 166.599472,130.787979 
	C168.359009,130.204376 170.049210,129.826630 172.230682,130.353592 
	C176.324677,130.788467 175.345032,134.281036 176.776993,136.653473 
	C177.277832,137.160736 177.505081,137.386703 177.866226,137.817062 
	C177.891815,139.436432 178.627243,140.919388 177.473694,142.635071 
	C175.773132,143.829208 173.987076,144.343338 173.125977,145.788513 
	C170.120560,150.832443 165.319214,151.332474 160.149551,151.484879 
	C139.348587,152.098053 118.591263,150.433121 97.804504,150.420578 
	C95.089470,150.418945 92.558632,149.652557 90.048958,148.721878 
	C87.388344,147.735214 84.704247,146.824402 81.404510,147.911621 
	C79.292931,146.162292 77.895035,144.132477 77.105530,141.353424 
z"/>
<path fill="#010816" opacity="1.000000" stroke="none" 
	d="
M81.012177,148.248138 
	C82.462158,143.652100 85.912247,143.542343 88.981995,145.254333 
	C93.304840,147.665161 97.746605,148.023758 102.457550,148.023880 
	C121.419525,148.024399 140.354462,149.652527 159.329391,148.999420 
	C164.291000,148.828659 169.366226,149.560364 170.568558,142.281586 
	C171.162430,138.686432 174.278000,141.261246 176.644836,141.894257 
	C178.195038,142.002731 179.414017,142.037369 180.762421,141.215240 
	C182.091095,140.702896 183.177155,140.372467 184.589996,139.946960 
	C184.614624,142.532288 182.355255,144.127380 181.172653,146.695679 
	C180.684647,151.240768 178.237076,153.865784 174.223419,155.722473 
	C145.931931,157.545059 117.903267,157.630371 89.436356,156.013855 
	C85.700623,154.761627 82.644363,153.240173 81.292328,149.227859 
	C81.065407,148.957291 81.033897,148.484207 81.012177,148.248138 
z"/>
<path fill="#58072A" opacity="1.000000" stroke="none" 
	d="
M182.849777,90.638672 
	C184.165192,92.851433 184.014694,94.871658 184.015488,96.859795 
	C184.019714,107.335999 184.010712,117.812210 183.995041,128.288391 
	C183.993301,129.451370 184.061005,130.641098 183.845581,131.770569 
	C183.554779,133.295349 183.813004,135.702332 181.684128,135.613098 
	C180.036072,135.544006 180.106598,133.328201 180.031433,131.873489 
	C179.662994,124.744698 179.252792,117.615425 179.062424,110.480850 
	C178.898376,104.332314 178.978287,98.176262 179.007843,92.023804 
	C179.050095,83.229286 179.251862,74.427101 177.074661,65.381149 
	C180.689163,65.181244 182.789551,67.913574 182.856491,72.779243 
	C182.909943,76.663460 181.934296,80.492012 182.016602,84.384300 
	C182.058212,86.353493 181.673553,88.371964 182.849777,90.638672 
z"/>
<path fill="#1D0820" opacity="1.000000" stroke="none" 
	d="
M177.033417,136.487747 
	C174.624207,136.275024 174.760727,133.208313 172.335846,132.126099 
	C169.398499,129.955688 169.505112,127.043671 169.825211,124.251556 
	C171.095947,113.167488 170.361267,102.057640 170.403198,90.473564 
	C173.284592,84.839958 171.650299,78.876686 173.687866,73.211411 
	C177.549728,73.674271 176.951584,76.495239 176.958389,78.886993 
	C177.012527,97.932533 177.014832,116.978210 177.033417,136.487747 
z"/>
<path fill="#780834" opacity="1.000000" stroke="none" 
	d="
M183.143600,90.561371 
	C180.272400,89.513710 181.116394,86.771721 181.022781,84.403473 
	C180.765091,77.885139 182.080032,71.105995 177.382080,65.140259 
	C177.088043,64.962273 177.063843,64.942192 177.058258,64.928589 
	C175.120987,60.382118 175.575119,59.584892 180.636383,59.664547 
	C181.687134,60.759434 182.299347,61.583427 183.067780,62.675938 
	C183.367035,63.497204 183.510086,64.049950 183.839157,64.826874 
	C185.017609,70.067146 184.363495,75.089577 184.125214,80.529938 
	C182.457642,83.850578 183.348984,87.046783 183.143600,90.561371 
z"/>
<path fill="#1D0B29" opacity="1.000000" stroke="none" 
	d="
M174.138916,72.543106 
	C173.622345,78.360420 174.712601,83.866295 173.188934,89.638565 
	C169.868042,89.951187 169.857071,87.527046 169.733627,85.432854 
	C169.461136,80.810768 169.249146,76.174690 170.076782,71.100281 
	C170.482376,68.212471 170.548813,65.725586 172.147949,63.193169 
	C172.951721,62.505779 173.515869,62.354370 174.545044,62.557922 
	C175.354401,63.195152 175.516495,63.740887 175.222504,64.738327 
	C174.741394,67.469704 174.481445,69.818985 174.138916,72.543106 
z"/>
<path fill="#58072A" opacity="1.000000" stroke="none" 
	d="
M175.342468,65.081299 
	C174.894745,64.613770 174.788147,64.107124 174.596970,63.222656 
	C173.178131,61.129234 172.648422,59.357292 174.524597,57.140652 
	C177.086014,57.153526 179.607071,56.615997 180.949844,59.597187 
	C178.249695,59.924366 176.893692,61.308224 177.063019,64.532547 
	C176.596313,64.957382 176.139954,64.999779 175.342468,65.081299 
z"/>
<path fill="#1D0820" opacity="1.000000" stroke="none" 
	d="
M180.765152,140.843506 
	C180.126129,142.551605 180.263245,146.625107 177.072159,142.275620 
	C177.203125,140.858978 177.426392,139.727127 177.833252,138.299927 
	C178.852997,138.887619 179.689148,139.770660 180.765152,140.843506 
z"/>
<path fill="#355379" opacity="1.000000" stroke="none" 
	d="
M94.664536,50.569221 
	C95.464043,50.693188 95.848625,50.661755 96.519577,50.588337 
	C103.534424,48.386700 110.438049,49.780155 117.256943,49.600842 
	C131.131989,49.235989 145.015121,49.712440 159.353851,49.504364 
	C160.394730,49.778622 160.986786,49.901604 162.026382,49.977112 
	C163.034058,49.979012 163.603378,50.016918 164.561447,50.255390 
	C171.771439,52.875942 172.897385,54.583958 171.313141,59.641609 
	C170.613739,61.874371 169.406357,63.471607 166.994995,63.528164 
	C164.555939,63.585369 162.850128,65.054024 160.543427,66.277008 
	C159.900925,66.427048 159.639359,66.443390 158.992630,66.470695 
	C155.266769,66.087318 151.952820,64.856049 148.191727,66.165375 
	C145.350327,65.127060 142.796875,65.364182 139.889008,65.765678 
	C138.848389,65.986832 138.164444,66.183975 137.114380,66.394264 
	C136.027954,66.478790 135.300262,66.471558 134.211395,66.324738 
	C132.410110,65.200241 130.916016,64.332436 128.626038,64.784004 
	C127.680626,64.836937 127.132172,64.875031 126.150162,64.956802 
	C116.545090,65.703781 107.375542,65.851448 97.775208,64.768562 
	C92.490250,63.341431 88.894768,61.084488 89.994629,54.727135 
	C90.689453,52.193573 91.861618,50.634411 94.664536,50.569221 
z"/>
<path fill="#142A46" opacity="1.000000" stroke="none" 
	d="
M161.150818,50.378887 
	C139.855286,50.662865 118.809486,50.702389 97.284821,50.644135 
	C97.403175,48.621510 98.913071,48.123314 100.689240,48.126911 
	C120.232788,48.166477 139.776321,48.216427 159.319824,48.277290 
	C159.637817,48.278278 159.955276,48.451302 160.650757,48.709656 
	C161.363144,49.232769 161.487137,49.652493 161.150818,50.378887 
z"/>
<path fill="#1B3352" opacity="1.000000" stroke="none" 
	d="
M159.381210,65.240433 
	C159.937790,62.519676 162.166977,63.093533 163.762726,62.619598 
	C166.337341,61.854942 168.805542,61.562061 169.282074,58.019669 
	C169.741501,54.604538 168.352692,52.670292 165.273438,51.099586 
	C164.869812,50.740627 164.763123,50.554089 164.840820,50.103146 
	C167.680771,50.590897 170.336349,51.343048 173.344727,52.161209 
	C174.074326,53.540581 174.451126,54.853943 174.871429,56.502190 
	C174.832123,58.561886 174.749344,60.286701 174.589478,62.428177 
	C174.149261,62.879700 173.786102,62.914562 173.147217,62.983482 
	C168.748779,67.603828 164.955658,68.367912 159.381210,65.240433 
z"/>
<path fill="#142A46" opacity="1.000000" stroke="none" 
	d="
M94.919937,50.480919 
	C93.913582,51.701397 92.747711,52.678177 91.321442,53.845703 
	C90.594513,54.432335 90.169991,54.892086 89.230492,55.038490 
	C88.481659,55.031254 88.041191,55.023254 87.269287,55.004425 
	C86.940048,54.814125 86.942245,54.634659 86.938110,54.185188 
	C89.036201,51.614025 90.856926,48.709019 94.919937,50.480919 
z"/>
<path fill="#142A46" opacity="1.000000" stroke="none" 
	d="
M164.933289,49.635597 
	C165.016342,50.020340 165.007492,50.201935 164.987549,50.655350 
	C164.550674,50.906818 164.124863,50.886475 163.381226,50.828514 
	C162.684937,50.448265 162.505219,50.026459 162.767181,49.215706 
	C163.756470,48.524563 164.395950,48.627434 164.933289,49.635597 
z"/>
<path fill="#1B3352" opacity="1.000000" stroke="none" 
	d="
M162.654587,48.911049 
	C162.998077,49.335777 163.016312,49.753563 163.048981,50.481125 
	C162.580704,50.783180 162.097977,50.775459 161.258179,50.695541 
	C160.930710,50.236923 160.960327,49.850506 161.009247,49.169678 
	C161.462128,48.884884 161.895737,48.894497 162.654587,48.911049 
z"/>
<path fill="#181A3F" opacity="1.000000" stroke="none" 
	d="
M157.199646,167.209625 
	C148.356216,165.671631 139.713257,164.492920 131.293365,168.070984 
	C129.550888,168.811462 127.719009,169.388306 126.003548,168.775726 
	C121.696869,167.237854 117.496574,165.402039 113.064667,163.387527 
	C114.265297,161.232635 115.793610,162.261978 117.651443,162.940475 
	C118.749519,163.005585 119.498154,163.006775 120.621094,163.008392 
	C122.171280,163.383926 123.348686,163.501953 124.896400,163.024384 
	C131.607742,162.307068 138.049210,162.814743 144.675598,161.254303 
	C147.043808,161.006287 149.082413,161.006104 151.557861,161.005920 
	C155.097382,162.288757 158.068604,164.198639 161.690277,162.733505 
	C162.611908,162.360672 163.610596,162.493866 164.535629,163.055069 
	C167.646851,164.942627 170.247879,164.059814 172.755768,161.251923 
	C174.070786,161.003113 175.136978,161.001877 176.603119,161.001450 
	C177.005692,162.073303 177.008316,163.144348 177.016632,164.617737 
	C177.022293,165.020065 177.003372,165.508560 176.994614,165.752838 
	C171.855957,173.409378 171.855957,173.409378 162.374512,169.235809 
	C161.825867,169.009689 161.656097,169.013153 161.231445,169.024048 
	C160.541565,169.017715 160.106552,169.003952 159.344910,168.985809 
	C158.475555,168.460373 157.936646,167.935440 157.199646,167.209625 
z"/>
<path fill="#101B3D" opacity="1.000000" stroke="none" 
	d="
M144.554199,161.004486 
	C140.596466,165.567200 134.505096,163.461868 129.306931,164.913895 
	C127.938179,165.296219 126.376549,164.988037 124.451416,164.995789 
	C123.335571,164.329742 122.608223,163.700317 122.838432,162.312866 
	C129.919785,159.245010 137.054459,161.033737 144.554199,161.004486 
z"/>
<path fill="#101B3D" opacity="1.000000" stroke="none" 
	d="
M172.605713,161.044922 
	C171.423874,166.344650 169.604980,167.409485 164.987549,165.271942 
	C163.194290,164.441803 161.545349,164.598724 159.726456,164.660645 
	C156.871933,164.757782 154.131744,164.201080 152.142731,161.319672 
	C158.731964,161.062088 165.464264,162.380966 172.605713,161.044922 
z"/>
<path fill="#0A102B" opacity="1.000000" stroke="none" 
	d="
M174.343216,155.938202 
	C175.439911,152.574951 177.717804,149.792206 180.763153,147.188660 
	C181.760391,147.883942 182.483154,148.751801 183.174576,149.643951 
	C185.738754,152.952621 184.595612,154.588058 180.376968,155.012970 
	C178.247589,155.329956 176.487259,155.621918 174.343216,155.938202 
z"/>
<path fill="#101B3E" opacity="1.000000" stroke="none" 
	d="
M117.740936,162.720428 
	C116.537994,163.850418 115.042427,163.101868 113.218887,163.092316 
	C109.000450,162.557037 105.435379,163.987778 101.392471,164.873428 
	C100.475792,164.440063 99.878960,164.063324 99.166267,163.310852 
	C105.057434,159.452332 111.254242,160.454666 117.740936,162.720428 
z"/>
<path fill="#061028" opacity="1.000000" stroke="none" 
	d="
M80.964417,149.271912 
	C84.472488,150.089935 86.388634,152.962311 88.818420,155.725403 
	C85.170502,156.386993 81.399986,156.508911 78.125381,153.305145 
	C79.304298,152.190231 80.382774,151.144012 80.964417,149.271912 
z"/>
<path fill="#181A3F" opacity="1.000000" stroke="none" 
	d="
M98.666916,163.000763 
	C99.585266,163.465164 100.170837,163.929092 100.881012,164.648590 
	C98.762886,165.060440 96.576836,165.430267 94.304237,166.800598 
	C89.904854,167.928299 86.002785,168.444977 85.034760,162.370361 
	C88.362198,166.128891 92.294739,165.501770 96.704926,163.179108 
	C97.446815,162.997604 97.890472,162.998947 98.666916,163.000763 
z"/>
<path fill="#101B3E" opacity="1.000000" stroke="none" 
	d="
M122.729141,162.082367 
	C123.286919,162.792007 123.574142,163.584610 123.930344,164.685944 
	C122.908600,164.877899 121.900574,164.603607 121.142708,163.290527 
	C121.483139,162.727646 121.970863,162.446503 122.729141,162.082367 
z"/>
<path fill="#1F063A" opacity="1.000000" stroke="none" 
	d="
M85.180214,139.652954 
	C83.494865,140.287567 82.105232,140.619034 80.358047,140.973633 
	C79.741638,140.500290 79.482780,140.003799 79.092056,139.259995 
	C79.568291,138.534546 80.176399,138.056412 80.914749,137.312134 
	C81.895447,136.493805 82.745911,135.941620 83.830780,135.189331 
	C85.089264,134.781204 85.632607,135.377655 86.152023,136.590118 
	C86.321587,137.893570 86.039742,138.668167 85.180214,139.652954 
z"/>
<path fill="#201B41" opacity="1.000000" stroke="none" 
	d="
M162.185516,169.286865 
	C163.294586,169.021866 164.687363,168.736725 165.875534,169.107422 
	C170.048691,170.409409 173.407608,169.200989 176.659515,166.105865 
	C176.985764,167.061798 176.985672,168.126495 176.979416,169.590195 
	C175.046219,170.795883 174.682541,172.670273 174.008057,174.332001 
	C173.287659,176.106873 172.236420,177.560989 170.143723,177.689133 
	C167.834778,177.830521 166.626923,176.404312 165.621765,174.506180 
	C164.703949,172.772934 163.470016,171.207108 162.185516,169.286865 
z"/>
<path fill="#2A1A42" opacity="1.000000" stroke="none" 
	d="
M157.115204,167.283981 
	C157.586685,167.493652 158.179062,167.971161 158.894867,168.715027 
	C158.424225,168.504868 157.830154,168.028336 157.115204,167.283981 
z"/>
<path fill="#031023" opacity="1.000000" stroke="none" 
	d="
M87.114113,113.402374 
	C86.996651,110.626968 87.000092,108.259888 87.002792,105.449295 
	C88.114769,97.706192 86.971497,90.335625 87.680000,82.632538 
	C88.055473,80.042358 88.348854,77.839424 88.575020,75.610649 
	C88.854721,72.854347 90.434265,70.801735 93.488045,70.258514 
	C96.176674,69.780251 97.990150,70.708321 99.092133,73.195206 
	C99.622826,74.392838 100.582947,76.294212 101.799164,74.434685 
	C105.347122,69.010094 109.471191,71.582893 113.852295,73.374550 
	C114.786484,75.877823 114.384239,78.134613 114.499878,80.795700 
	C114.290504,86.238586 114.954590,91.268921 113.870766,96.592003 
	C110.406288,96.834732 110.021614,98.439888 110.510574,101.324982 
	C111.085258,104.715935 108.598724,107.738441 108.747314,111.285866 
	C108.825981,113.163963 106.517059,113.927139 104.862526,114.666542 
	C101.747032,116.058838 99.230499,118.030243 97.870544,121.709503 
	C95.488754,124.427856 93.066498,122.958206 90.296570,122.425827 
	C89.606804,122.250641 89.336998,122.152786 88.727417,121.796478 
	C86.852570,119.133911 87.971161,116.333977 87.114113,113.402374 
z"/>
<path fill="#05142A" opacity="1.000000" stroke="none" 
	d="
M113.650894,72.843796 
	C111.472298,74.829948 112.558327,77.505692 111.368843,79.513924 
	C111.008072,79.394493 110.564400,79.384811 110.460312,79.191910 
	C109.442177,77.304970 110.702209,73.949326 107.544296,73.547760 
	C104.240440,73.127632 104.449348,76.272194 103.763550,78.348259 
	C103.305214,79.735718 102.456833,80.662422 100.915367,80.639771 
	C99.239891,80.615143 98.308914,79.569778 97.487946,78.198143 
	C96.378334,76.344284 98.284241,72.385956 94.228752,72.687477 
	C90.013168,73.000900 90.315140,76.949860 89.439400,79.836861 
	C89.391487,79.994797 89.328804,80.148247 89.133514,80.652763 
	C88.286728,81.442268 87.770935,81.104927 87.156815,80.285660 
	C86.485321,75.737930 88.065300,71.808250 88.871567,67.363190 
	C88.879738,66.966110 88.910309,66.914467 88.926079,66.888939 
	C93.709541,65.099991 98.551186,66.870110 103.365448,66.628540 
	C107.060341,66.443138 110.992477,65.780716 114.765228,68.391342 
	C116.065094,70.383324 115.590019,71.670021 113.650894,72.843796 
z"/>
<path fill="#0A0A2D" opacity="1.000000" stroke="none" 
	d="
M86.860046,80.375320 
	C87.508110,80.241425 88.002739,80.496254 88.745697,80.876419 
	C88.994461,87.160263 89.018021,93.318924 88.980934,99.477226 
	C88.970131,101.271797 89.283836,103.197563 87.320358,104.793961 
	C85.201851,96.945946 85.729919,88.857727 86.860046,80.375320 
z"/>
<path fill="#040F2A" opacity="1.000000" stroke="none" 
	d="
M88.651276,120.762840 
	C89.157578,120.998657 89.325638,121.000412 89.745781,121.004593 
	C90.153366,121.208405 90.308868,121.409790 90.607910,121.966400 
	C90.161049,124.626106 91.907890,126.890549 90.599838,129.506668 
	C90.092270,129.945374 89.854179,130.080109 89.212891,130.306030 
	C87.655144,130.575333 86.586624,130.432922 85.418083,129.264557 
	C85.101028,127.572899 85.078423,126.182716 85.074646,124.375565 
	C85.029884,123.174011 84.873558,122.402557 84.935608,121.385468 
	C85.108116,121.146324 85.571594,121.086296 85.802643,121.051331 
	C86.700745,120.420395 87.463699,120.272697 88.651276,120.762840 
z"/>
<path fill="#0A0A2D" opacity="1.000000" stroke="none" 
	d="
M88.991692,120.573090 
	C88.250168,121.001022 87.510803,121.005135 86.402565,121.012802 
	C86.089958,118.562981 85.632339,116.068542 86.806198,113.341789 
	C89.932022,114.743874 88.697075,117.660713 88.991692,120.573090 
z"/>
<path fill="#0A0A2D" opacity="1.000000" stroke="none" 
	d="
M84.868439,121.127167 
	C85.178322,121.939095 85.248528,122.731865 85.206100,123.741615 
	C84.784233,123.207130 84.474991,122.455666 84.157036,121.395935 
	C84.148323,121.087669 84.628769,121.108009 84.868439,121.127167 
z"/>
<path fill="#142A46" opacity="1.000000" stroke="none" 
	d="
M115.955490,70.471970 
	C107.213165,67.841370 98.184799,69.894676 89.337990,66.976456 
	C88.966721,65.526382 88.991608,64.189354 89.028511,62.447876 
	C90.194138,60.696045 91.288017,61.455490 92.400307,62.123951 
	C93.607414,62.849400 94.740921,63.868587 96.665054,63.158340 
	C106.671844,63.096275 116.348198,63.101925 126.489563,63.136009 
	C127.435516,63.533997 127.955658,63.715950 128.805878,63.348404 
	C130.907242,63.120556 132.787430,62.945309 134.432648,64.860718 
	C134.719086,66.719894 133.591187,67.263969 132.136871,67.975571 
	C131.577606,68.218750 131.345490,68.295013 130.752533,68.431274 
	C126.579262,69.235672 122.732956,69.830940 118.674805,71.165909 
	C117.549210,71.346642 116.832367,71.218948 115.955490,70.471970 
z"/>
<path fill="#1B3352" opacity="1.000000" stroke="none" 
	d="
M96.706993,62.879974 
	C94.051086,67.020813 92.190117,62.119045 89.379356,62.120667 
	C89.004990,59.998569 88.969444,57.953709 88.928017,55.474052 
	C89.441521,54.751503 89.960899,54.463753 90.770660,54.106224 
	C90.604019,58.305958 91.775200,61.565018 96.706993,62.879974 
z"/>
<path fill="#0A0A2D" opacity="1.000000" stroke="none" 
	d="
M85.074173,129.347260 
	C86.161713,128.978134 87.199799,128.993195 88.629684,129.011749 
	C89.217888,129.215240 89.414299,129.415237 89.884865,129.935959 
	C90.625290,131.006073 90.776535,131.820923 90.545227,133.092911 
	C88.752182,134.698624 88.577492,137.689926 85.358917,137.232590 
	C84.806702,136.488693 84.595619,135.969681 84.224854,135.219940 
	C84.385025,133.236618 84.704872,131.484039 85.074173,129.347260 
z"/>
<path fill="#040F21" opacity="1.000000" stroke="none" 
	d="
M171.680511,69.577179 
	C172.368393,76.424728 171.261703,82.889877 172.812210,89.638580 
	C172.876694,103.703583 173.401398,117.416626 172.033234,131.535767 
	C168.690384,132.914703 165.216751,133.534073 162.028748,134.847015 
	C157.838882,136.572571 157.222122,134.653992 156.950577,131.108749 
	C156.671417,127.463707 159.601929,124.755455 159.143402,121.098694 
	C157.297516,119.447319 157.535034,117.416397 157.505478,115.459946 
	C157.421204,109.880730 157.667480,104.298012 157.281219,98.298004 
	C157.097809,96.761490 156.906387,95.657822 156.625870,94.150192 
	C156.595551,90.995117 157.575363,88.336403 157.273834,85.147339 
	C157.181747,83.580566 156.989853,82.447067 156.830933,80.860977 
	C157.426086,77.117065 156.210403,73.696335 157.718994,70.004868 
	C162.397583,67.032066 166.799408,65.140770 171.680511,69.577179 
z"/>
<path fill="#DD1A51" opacity="1.000000" stroke="none" 
	d="
M133.552490,85.502754 
	C132.483841,87.832176 129.924805,86.765076 128.299210,87.483337 
	C126.530609,88.264786 124.467888,88.380554 122.126884,88.821274 
	C118.466934,87.819458 118.773323,85.471710 120.248413,83.467873 
	C122.231682,80.773727 124.969841,78.555809 128.550293,78.866173 
	C134.630890,79.393265 140.712601,78.037361 147.180939,79.007729 
	C150.934555,78.507637 153.577560,78.980614 154.773438,82.875900 
	C155.360077,84.786743 157.425125,86.124786 157.939117,88.692780 
	C157.281906,94.015549 158.647537,98.913322 158.000397,104.252640 
	C158.054764,108.763741 157.881256,112.839668 158.206100,117.334732 
	C158.544632,118.606903 158.503265,119.471024 158.138168,120.645096 
	C155.391037,126.693367 151.220108,130.140457 144.918671,130.987762 
	C139.278214,131.746201 135.145233,129.563858 132.800354,123.937744 
	C131.890381,118.899132 134.653946,115.803001 137.785675,112.483337 
	C140.230270,110.952911 142.603439,110.591354 145.098373,110.412811 
	C147.114365,110.268555 149.640335,110.307838 149.466675,106.728966 
	C149.413498,105.726151 149.385208,105.083557 149.473877,103.966370 
	C149.604294,101.136528 149.617752,98.781296 149.614044,96.133522 
	C149.728363,92.696892 149.665680,89.529305 150.042450,86.414879 
	C150.473648,82.850433 148.937576,82.632431 146.071594,83.345963 
	C142.071091,84.341957 137.993164,85.026955 133.552490,85.502754 
z"/>
<path fill="#E21C52" opacity="1.000000" stroke="none" 
	d="
M148.255798,80.781067 
	C141.573227,80.301865 135.206192,82.382896 128.678101,81.316528 
	C124.879089,80.695969 121.825630,84.184395 121.593048,88.558151 
	C121.497681,93.936844 121.274986,99.017685 120.970627,104.557060 
	C120.420868,106.141663 120.014999,107.275139 120.650627,108.760208 
	C120.858772,110.089119 120.889931,111.169136 120.838127,112.646759 
	C120.580215,113.451279 120.505234,113.875862 120.611847,114.635765 
	C120.717789,115.753769 120.742065,116.554108 120.672020,117.745407 
	C120.497215,118.809319 120.500397,119.485573 120.475128,120.498886 
	C120.437630,121.732056 120.422752,122.627930 120.274567,123.953049 
	C120.388496,124.731270 120.472145,125.115829 120.219833,125.792114 
	C120.047417,126.048271 119.996597,126.013969 120.024384,126.023872 
	C118.707153,127.345757 119.251472,129.219910 118.593292,131.107208 
	C118.538490,131.461838 118.560165,131.528152 118.527847,131.541290 
	C118.207611,131.617935 117.919685,131.681458 117.191101,131.719177 
	C116.183716,131.494690 115.694725,131.176910 115.059189,130.354736 
	C114.486969,126.968628 113.881844,123.961395 115.923141,121.217041 
	C116.610191,120.293365 116.629593,119.086128 116.332024,117.952614 
	C114.495613,110.957237 115.201355,103.661484 113.678574,96.180740 
	C113.429054,91.322159 113.534248,86.897491 113.500008,82.041748 
	C113.731720,77.806160 112.553673,73.566406 117.162788,70.855309 
	C121.656982,68.880737 126.199623,68.754211 130.739075,67.193893 
	C131.031036,66.929977 131.010284,66.995392 130.978256,66.983086 
	C133.187302,66.944817 135.258865,65.765533 137.904663,66.072998 
	C142.476990,68.441437 145.395889,71.992859 147.897095,75.967125 
	C148.804810,77.409439 149.788834,78.793846 148.255798,80.781067 
z"/>
<path fill="#D82159" opacity="1.000000" stroke="none" 
	d="
M115.728195,129.691925 
	C116.228828,130.203705 116.455368,130.422043 116.824982,130.830917 
	C116.895615,132.415680 116.245613,133.585175 115.263870,134.978638 
	C108.887825,140.386307 100.780807,140.282578 95.516914,134.805481 
	C94.681389,134.414108 94.248596,134.085388 93.780823,133.212860 
	C93.587692,130.637344 93.127571,128.444077 93.862137,125.896713 
	C95.094658,123.659447 97.373085,123.180359 98.911423,121.285767 
	C102.576767,119.308807 106.540398,119.261070 110.197487,117.208588 
	C110.721542,116.892899 110.931931,116.762985 111.468628,116.445549 
	C112.250130,116.009186 112.734489,115.846115 113.645302,115.778885 
	C117.031128,117.050659 117.124550,119.360916 115.684601,121.628731 
	C113.989517,124.298378 114.378471,126.770081 115.728195,129.691925 
z"/>
<path fill="#031023" opacity="1.000000" stroke="none" 
	d="
M94.648254,132.634094 
	C94.927963,133.318405 95.070541,133.667389 95.222984,134.301575 
	C94.337311,137.335526 92.076401,135.328583 90.281708,135.963013 
	C88.254013,136.038773 88.352524,134.895828 88.763245,133.350464 
	C89.005211,132.242599 89.011642,131.487946 89.022072,130.355988 
	C89.170059,129.806015 89.314064,129.633362 89.716492,129.244003 
	C89.620811,126.904366 88.544144,124.818939 89.816498,122.309303 
	C92.568344,121.890839 94.022125,123.162628 93.694565,125.697708 
	C93.393372,128.028778 94.033638,130.126892 94.648254,132.634094 
z"/>
<path fill="#220C2F" opacity="1.000000" stroke="none" 
	d="
M139.659729,107.069862 
	C141.227524,106.608948 142.414627,106.157074 143.640564,105.872574 
	C147.079239,105.074554 146.582581,106.951889 145.629898,109.331032 
	C145.392578,109.776108 145.256134,109.922211 144.855774,110.210022 
	C144.206650,110.451813 143.821732,110.552971 143.171402,110.787544 
	C142.562653,111.114845 142.220184,111.310898 141.609772,111.629608 
	C140.954285,111.830002 140.563263,111.866898 139.877380,111.920311 
	C139.204453,112.104797 138.857727,112.296829 138.312241,112.744148 
	C137.310043,113.599632 136.705994,114.507843 135.262421,114.573669 
	C134.775497,114.401443 134.599960,114.283493 134.216537,113.583473 
	C134.590973,109.984978 136.470215,108.141678 139.659729,107.069862 
z"/>
<path fill="#DF5C86" opacity="1.000000" stroke="none" 
	d="
M140.515625,110.672424 
	C141.201080,110.888252 141.465866,110.884903 141.891541,110.659233 
	C142.425156,109.221596 143.566071,109.593666 144.799530,109.282867 
	C145.132080,109.126755 145.083939,109.572762 145.306473,109.601379 
	C147.058243,109.185600 149.085327,109.457191 149.344147,106.706978 
	C150.191818,109.611320 148.655609,111.187027 145.604752,111.769005 
	C143.704407,112.131516 141.832870,112.645172 139.565826,113.156761 
	C138.689316,113.379341 138.287247,113.260735 138.029938,112.469803 
	C138.320755,111.885490 138.572632,111.656242 138.636475,111.248276 
	C138.960861,110.780083 139.510147,110.608482 140.515625,110.672424 
z"/>
<path fill="#090413" opacity="1.000000" stroke="none" 
	d="
M158.115845,120.960411 
	C157.810303,120.202324 157.783936,119.450752 157.697708,118.328094 
	C157.333511,114.068794 157.579559,110.174088 157.500015,105.839172 
	C157.504288,103.051056 157.490509,100.706963 157.542862,97.927628 
	C157.743958,97.254250 157.911163,97.016167 158.503784,96.875488 
	C158.941681,104.664154 158.954193,112.355438 158.960068,120.512863 
	C158.767288,120.974983 158.581161,120.970955 158.115845,120.960411 
z"/>
<path fill="#EB3B76" opacity="1.000000" stroke="none" 
	d="
M137.759949,112.129898 
	C138.306396,112.369858 138.543930,112.624962 138.982361,113.051300 
	C136.312592,115.893974 133.561127,118.642639 132.940186,123.200424 
	C131.161057,121.253448 132.517227,119.073494 133.401001,116.491364 
	C133.442261,115.924507 133.354645,115.726738 133.579926,114.652435 
	C134.097855,113.706902 134.302902,113.637917 134.759949,113.773346 
	C135.824982,113.366859 136.638016,112.755951 137.759949,112.129898 
z"/>
<path fill="#020D24" opacity="1.000000" stroke="none" 
	d="
M88.715233,133.148987 
	C89.217842,133.817307 89.436905,134.637360 89.827896,135.728058 
	C88.869820,137.681168 87.617981,139.221298 85.217072,139.881775 
	C84.915909,139.219131 84.947319,138.482132 84.998260,137.376434 
	C86.845734,136.407501 86.909836,134.182877 88.715233,133.148987 
z"/>
<path fill="#D91E52" opacity="1.000000" stroke="none" 
	d="
M115.404770,135.158722 
	C115.104790,133.841354 115.312088,132.482300 116.720108,131.234207 
	C117.234352,131.095718 117.488091,131.182999 118.118683,131.412354 
	C118.073822,133.120712 116.941345,134.121017 115.404770,135.158722 
z"/>
<path fill="#D91E52" opacity="1.000000" stroke="none" 
	d="
M118.809486,131.219391 
	C118.064682,129.658676 117.964012,127.926994 119.769875,126.270081 
	C120.549156,127.842857 119.984520,129.443268 118.809486,131.219391 
z"/>
<path fill="#D91E52" opacity="1.000000" stroke="none" 
	d="
M120.896820,108.613937 
	C118.914001,107.976852 119.683586,106.720482 120.709961,105.236603 
	C120.914658,106.083313 120.940346,107.151047 120.896820,108.613937 
z"/>
<path fill="#220C2F" opacity="1.000000" stroke="none" 
	d="
M133.957947,114.875168 
	C134.187149,115.372620 134.098282,115.644058 133.711578,115.999878 
	C132.673248,115.764755 131.425690,115.603149 133.055756,114.210373 
	C133.603439,114.352448 133.679733,114.519806 133.957947,114.875168 
z"/>
<path fill="#DF5C86" opacity="1.000000" stroke="none" 
	d="
M149.503845,95.733871 
	C149.596909,95.840988 149.657639,95.503899 149.658630,95.449127 
	C149.591919,95.491554 149.524246,95.588760 149.456558,95.685974 
	C149.441299,95.666237 149.426025,95.646500 149.503845,95.733871 
z"/>
<path fill="#D91E52" opacity="1.000000" stroke="none" 
	d="
M120.577362,120.513596 
	C120.423721,120.075974 120.394943,119.315758 120.471924,118.345963 
	C120.619209,118.821251 120.660721,119.506126 120.577362,120.513596 
z"/>
<path fill="#D91E52" opacity="1.000000" stroke="none" 
	d="
M120.773727,114.640488 
	C120.646065,114.435432 120.598610,113.917427 120.653168,113.221893 
	C120.788094,113.472084 120.821014,113.899811 120.773727,114.640488 
z"/>
<path fill="#E21C52" opacity="1.000000" stroke="none" 
	d="
M133.155670,85.196426 
	C133.444244,85.204216 133.731888,85.247940 134.019516,85.291664 
	C133.884094,85.325996 133.748688,85.360329 133.405975,85.341972 
	C133.198685,85.289284 133.154709,85.232376 133.155670,85.196426 
z"/>
<path fill="#D91E52" opacity="1.000000" stroke="none" 
	d="
M120.159470,125.855637 
	C120.052750,125.629364 120.058083,125.210464 120.102341,124.586929 
	C120.184685,124.809204 120.228104,125.236099 120.159470,125.855637 
z"/>
<path fill="#DF5C86" opacity="1.000000" stroke="none" 
	d="
M149.553345,103.491585 
	C149.590851,103.491768 149.570663,103.535484 149.580322,103.516876 
	C149.589966,103.498268 149.515854,103.491402 149.553345,103.491585 
z"/>
<path fill="#220C2F" opacity="1.000000" stroke="none" 
	d="
M132.997849,114.002998 
	C133.198090,113.758980 133.412521,113.525627 133.827789,113.156021 
	C134.008652,113.001396 133.994064,112.991417 133.988235,112.984573 
	C134.155624,113.205940 134.328842,113.434166 134.560669,114.088135 
	C134.619263,114.513893 134.632217,114.568573 134.606873,114.580704 
	C134.286331,114.564629 133.991104,114.536407 133.336578,114.245880 
	C132.977295,113.983574 132.992050,113.995300 132.997849,114.002998 
z"/>
<path fill="#111F3A" opacity="1.000000" stroke="none" 
	d="
M172.112183,69.647171 
	C168.001617,68.835922 164.016556,69.100426 159.626663,69.848183 
	C157.531937,68.749733 157.457291,67.259247 158.498032,65.213821 
	C158.829163,64.854103 158.997589,64.865685 159.074387,64.828941 
	C163.660538,65.607391 167.931290,64.650375 172.493240,63.032192 
	C173.026932,65.141663 173.060593,67.253822 172.112183,69.647171 
z"/>
<path fill="#4D6C94" opacity="1.000000" stroke="none" 
	d="
M165.572021,55.779472 
	C165.178009,57.793629 164.110809,59.097286 162.461380,58.763569 
	C157.259140,57.711063 152.299515,59.870552 146.766266,58.997822 
	C141.087646,58.102165 134.478058,58.547020 128.290985,59.419621 
	C118.883530,60.746403 109.382950,59.865124 99.922791,59.898670 
	C97.578133,59.906986 95.459465,58.898209 95.340500,56.275593 
	C95.203575,53.257500 97.690292,53.000336 99.905396,52.994995 
	C120.343475,52.945709 140.781693,52.934402 161.219833,52.955688 
	C163.048798,52.957592 164.974777,53.095585 165.572021,55.779472 
z"/>
<path fill="#ED2D61" opacity="1.000000" stroke="none" 
	d="
M158.504761,64.679565 
	C158.914368,66.246994 158.999573,67.639893 159.156433,69.434677 
	C159.138321,73.237404 159.048538,76.638237 158.920258,80.493713 
	C158.222183,82.087379 158.563812,83.315796 158.655945,84.803543 
	C158.663788,87.711960 158.579132,90.330513 158.445587,93.321823 
	C158.485596,94.582832 158.509216,95.473053 158.334961,96.787186 
	C158.142883,99.517113 158.093231,101.824783 157.966354,104.560150 
	C157.773636,105.209389 157.658157,105.430946 157.288147,105.377396 
	C157.002686,99.727333 156.971725,94.352356 156.936096,88.512589 
	C154.679169,81.665886 151.228745,76.135971 146.015305,71.672417 
	C144.467102,70.346909 142.716034,68.872963 142.235413,66.238037 
	C143.153275,63.634319 145.107574,64.091057 147.243225,63.994896 
	C151.240448,62.301025 154.805557,61.583469 158.504761,64.679565 
z"/>
<path fill="#E5608A" opacity="1.000000" stroke="none" 
	d="
M147.371185,63.718079 
	C146.559174,65.256401 144.831177,64.926544 143.226685,65.788940 
	C142.048096,67.883301 140.599579,68.372162 138.310928,67.383240 
	C135.830002,66.632935 133.729721,68.170853 131.274384,67.089447 
	C131.627380,65.701782 133.119186,66.293854 134.357864,65.399017 
	C135.163315,65.203720 135.668533,65.224922 136.409943,65.119370 
	C137.241959,64.596764 137.834793,64.194679 138.921814,64.075546 
	C141.961746,64.808357 144.414078,62.485645 147.371185,63.718079 
z"/>
<path fill="#1B3352" opacity="1.000000" stroke="none" 
	d="
M128.704376,63.152164 
	C128.781067,63.758282 128.639664,64.635536 128.209732,64.812729 
	C127.393120,65.149277 127.219749,64.285835 126.995712,63.415253 
	C127.421730,63.145359 127.888878,63.126278 128.704376,63.152164 
z"/>
<path fill="#142A46" opacity="1.000000" stroke="none" 
	d="
M139.031921,63.966354 
	C138.648727,64.372017 138.017944,64.672043 137.016663,64.982346 
	C137.095352,64.117531 137.670242,63.479870 139.031921,63.966354 
z"/>
<path fill="#1B0B26" opacity="1.000000" stroke="none" 
	d="
M97.142670,121.314285 
	C96.836014,118.152100 97.304588,115.550720 100.202217,114.285728 
	C107.391273,111.147285 108.992577,105.051224 109.025917,98.066696 
	C109.036873,95.771095 109.027649,93.475395 109.027649,90.318619 
	C110.479782,92.795471 110.001602,95.061455 111.793228,96.742676 
	C113.017731,97.690849 113.373787,98.695930 113.460983,100.248947 
	C113.499519,101.710411 113.499023,102.767570 113.471558,104.205338 
	C112.735016,108.212830 112.281815,111.852058 112.889053,115.902962 
	C112.614655,116.708771 112.403488,117.150475 111.821030,117.541924 
	C111.456825,117.495041 111.541824,117.884468 111.736649,117.842461 
	C108.632874,119.696030 104.660637,119.491043 100.989326,121.322372 
	C99.990067,121.558670 99.470367,121.996712 98.575951,122.385803 
	C97.809990,122.276382 97.463806,122.017662 97.142670,121.314285 
z"/>
<path fill="#0A0B1D" opacity="1.000000" stroke="none" 
	d="
M96.748795,121.100464 
	C97.303879,121.190590 97.510689,121.410378 97.846741,121.819778 
	C98.732605,123.690872 96.589737,124.070053 96.287590,125.657883 
	C94.560974,127.769203 94.326866,129.878632 94.779037,132.553024 
	C91.475197,130.244736 92.182045,125.846703 90.203148,122.238503 
	C89.990791,121.998024 89.994598,121.502434 89.996231,121.254730 
	C92.137680,121.076126 94.277489,121.145226 96.748795,121.100464 
z"/>
<path fill="#F72D6B" opacity="1.000000" stroke="none" 
	d="
M112.383804,101.458374 
	C112.216141,99.959030 112.137009,98.886955 112.040070,97.410309 
	C113.458244,92.058197 112.676369,86.962166 113.096275,81.481812 
	C113.278076,80.798698 113.394348,80.575996 113.742462,80.650375 
	C114.015526,85.671471 114.056732,90.395485 114.118851,95.589127 
	C115.509865,99.531136 115.283928,103.049416 114.086937,106.852768 
	C110.782028,105.983803 113.289604,103.534851 112.383804,101.458374 
z"/>
<path fill="#D23B6C" opacity="1.000000" stroke="none" 
	d="
M113.982056,80.551666 
	C113.974312,80.947464 113.568329,80.987495 113.365067,81.004448 
	C113.160500,78.641556 113.159203,76.261703 113.185608,73.435333 
	C113.909798,72.216080 114.606277,71.443336 115.511070,70.424957 
	C116.313965,70.029671 116.908539,69.880013 117.811539,69.723953 
	C118.210861,69.942101 118.301773,70.166664 118.185860,70.690018 
	C115.225037,73.424706 113.881882,76.474564 113.982056,80.551666 
z"/>
<path fill="#1B0B26" opacity="1.000000" stroke="none" 
	d="
M105.500214,105.505997 
	C105.495750,105.489014 105.504677,105.522972 105.500214,105.505997 
z"/>
<path fill="#050C1D" opacity="1.000000" stroke="none" 
	d="
M89.736565,129.023788 
	C89.783524,129.257706 89.578979,129.475739 89.193672,129.830048 
	C89.026062,129.978653 89.021584,129.496780 89.021530,129.256012 
	C89.021477,129.015259 89.498215,129.020264 89.736565,129.023788 
z"/>
<path fill="#E75E87" opacity="1.000000" stroke="none" 
	d="
M118.382339,70.964989 
	C117.997498,70.776825 118.015961,70.564850 118.077187,70.035202 
	C122.062675,68.454758 126.066444,67.465866 130.611908,66.978500 
	C127.690216,70.529114 122.875282,69.628052 118.382339,70.964989 
z"/>
<path fill="#97243F" opacity="1.000000" stroke="none" 
	d="
M158.863281,84.689995 
	C158.151764,83.917114 158.213318,82.709686 158.729828,81.218140 
	C158.913879,82.061096 158.945999,83.173836 158.863281,84.689995 
z"/>
<path fill="#97243F" opacity="1.000000" stroke="none" 
	d="
M158.377441,97.152626 
	C158.167892,96.321747 158.143265,95.434067 158.257660,94.120483 
	C158.555069,94.563995 158.713455,95.433395 158.900497,96.637833 
	C158.929169,96.972878 158.562347,97.095818 158.377441,97.152626 
z"/>
<path fill="#E8245A" opacity="1.000000" stroke="none" 
	d="
M137.931732,67.419380 
	C139.372406,66.771355 140.792526,66.402885 142.575195,65.998077 
	C150.219040,71.328339 156.815063,77.146904 156.945206,87.634338 
	C155.099228,87.157661 153.716446,85.535347 153.084305,83.865570 
	C152.193115,81.511429 150.630844,81.161301 148.321350,81.062614 
	C145.684570,76.713509 143.361572,72.361794 138.830475,69.811790 
	C137.998215,69.343414 137.842804,68.566406 137.931732,67.419380 
z"/>
<path fill="#D73256" opacity="1.000000" stroke="none" 
	d="
M157.028931,105.549881 
	C157.033646,105.102303 157.461716,105.047432 157.675415,105.017639 
	C157.871597,109.009377 157.854065,113.030914 157.737198,117.504730 
	C156.487778,114.019005 157.224030,109.984222 157.028931,105.549881 
z"/>
<path fill="#D91E52" opacity="1.000000" stroke="none" 
	d="
M112.727341,107.247070 
	C114.728691,103.707741 113.659042,100.247490 114.106026,96.499474 
	C116.080612,97.142639 115.799370,99.057037 116.030533,100.848709 
	C117.248047,110.284874 118.999016,119.711632 115.992363,129.569000 
	C111.961823,128.405045 112.888359,125.174759 113.523506,122.165581 
	C113.869766,120.525032 115.580704,119.013527 113.435211,117.126968 
	C111.224739,113.970253 111.988388,110.776062 112.727341,107.247070 
z"/>
<path fill="#E86791" opacity="1.000000" stroke="none" 
	d="
M99.842010,121.464973 
	C103.501137,119.076279 107.285629,118.109314 111.577156,117.718445 
	C109.211601,121.743698 104.199074,119.990822 100.439049,122.421577 
	C99.925125,122.323753 99.784012,122.080391 99.842010,121.464973 
z"/>
<path fill="#C5346E" opacity="1.000000" stroke="none" 
	d="
M113.049965,106.506042 
	C113.062073,109.938271 113.077484,112.992363 113.131607,116.494812 
	C112.800133,117.099922 112.429939,117.256676 111.758301,117.454239 
	C111.567505,117.168892 111.678169,116.842743 111.770767,116.260071 
	C111.217453,112.633743 111.584717,109.246361 111.739830,105.442719 
	C112.023529,103.955116 112.122528,102.891495 112.258400,101.429489 
	C113.366051,102.608368 113.005173,104.398544 113.049965,106.506042 
z"/>
<path fill="#DE5184" opacity="1.000000" stroke="none" 
	d="
M99.760483,121.141998 
	C100.047234,121.337196 100.053352,121.581474 100.062859,122.196442 
	C98.922501,123.584732 97.778755,124.602333 96.379631,125.785049 
	C95.776329,124.434212 96.883675,123.564407 97.815956,122.265961 
	C98.488472,121.726067 98.984154,121.458572 99.760483,121.141998 
z"/>
<path fill="#050C1D" opacity="1.000000" stroke="none" 
	d="
M144.783539,109.162018 
	C144.765015,110.333435 143.569229,110.008217 142.409470,110.472824 
	C142.847488,110.091400 143.641235,109.644333 144.783539,109.162018 
z"/>
<path fill="#050C1D" opacity="1.000000" stroke="none" 
	d="
M140.689301,110.721161 
	C140.385941,110.936302 139.836884,111.082542 138.868118,111.149185 
	C139.113480,110.930466 139.778534,110.791359 140.689301,110.721161 
z"/>
<path fill="#050C1D" opacity="1.000000" stroke="none" 
	d="
M140.011398,106.993515 
	C140.022705,106.984436 140.031906,107.101120 140.007111,107.063568 
	C139.982315,107.026024 140.000092,107.002594 140.011398,106.993515 
z"/>
<path fill="#050C1D" opacity="1.000000" stroke="none" 
	d="
M134.745560,114.400467 
	C134.508545,114.259842 134.397827,114.005783 134.134750,113.364731 
	C134.248947,113.158615 134.487793,113.370697 134.855469,113.795868 
	C135.011963,113.977768 134.871857,114.287033 134.745560,114.400467 
z"/>
<path fill="#050C1D" opacity="1.000000" stroke="none" 
	d="
M133.158295,114.180527 
	C133.245651,114.082443 133.513992,114.181320 134.181946,114.436516 
	C134.581543,114.592842 134.449982,114.898979 134.304932,114.981071 
	C133.886353,114.834595 133.612823,114.606033 133.158295,114.180527 
z"/>
<path fill="#080210" opacity="1.000000" stroke="none" 
	d="
M111.743393,105.366547 
	C111.917854,108.377541 111.911194,111.736351 111.828613,115.549347 
	C110.039062,112.604355 110.988060,109.155884 111.743393,105.366547 
z"/>
</svg>